# xmcd
#
# Track frame offsets:
#	150
#	47055
#	88740
#	135495
#
# Disc length: 2366 seconds
#
# Revision: 1
# Processed by: cddbd v1.5.2PL0 Copyright (c) Steve Scherf et al.
# Submitted via: EZCDAudioConverter 8.0.2.1
#
DISCID=2d093c04
DTITLE=Ngọc Lan, Kiều Nga, Ngọc Hương - Liên Khúc Tình Yêu 2
DYEAR=1990
DGENRE=World Pop
TTITLE0=Part 1. Liên Khúc Tình Yêu 2
TTITLE1=Part 2. Liên Khúc Tình Yêu 2
TTITLE2=Part 3. Liên Khúc Tình Yêu 2
TTITLE3=Part 4. Liên Khúc Tình Yêu 2
EXTD=
EXTT0=
EXTT1=
EXTT2=
EXTT3=
PLAYORDER=
